<svg width="1024" height="1024" viewBox="0 0 1024 1024" fill="none" xmlns="http://www.w3.org/2000/svg">
<g clip-path="url(#clip0_3_2)">
<circle cx="512" cy="511" r="462" stroke="url(#paint0_linear_3_2)" stroke-width="100"/>
<mask id="mask0_3_2" style="mask-type:alpha" maskUnits="userSpaceOnUse" x="80" y="17" width="865" height="751">
<path d="M294.758 390.556C296.298 387.889 300.147 387.889 301.686 390.556L515.787 761.389C517.326 764.056 515.402 767.389 512.323 767.389H84.1215C81.0423 767.389 79.1178 764.056 80.6574 761.389L294.758 390.556Z" fill="#D9D9D9"/>
<path d="M508.432 19C509.972 16.3333 513.821 16.3333 515.361 19L729.461 389.833C731.001 392.5 729.076 395.833 725.997 395.833H297.796C294.717 395.833 292.792 392.5 294.332 389.833L508.432 19Z" fill="#D9D9D9"/>
<path d="M723.294 390.556C724.833 387.889 728.682 387.889 730.222 390.556L944.322 761.389C945.862 764.056 943.938 767.389 940.858 767.389H512.657C509.578 767.389 507.653 764.056 509.193 761.389L723.294 390.556Z" fill="#D9D9D9"/>
</mask>
<g mask="url(#mask0_3_2)">
<rect x="42" y="17" width="940" height="991" fill="url(#paint1_linear_3_2)"/>
</g>
</g>
<defs>
<linearGradient id="paint0_linear_3_2" x1="512" y1="-1" x2="512" y2="1023" gradientUnits="userSpaceOnUse">
<stop stop-color="#0601FF"/>
<stop offset="1" stop-color="#4BD369"/>
</linearGradient>
<linearGradient id="paint1_linear_3_2" x1="512" y1="17" x2="512" y2="1008" gradientUnits="userSpaceOnUse">
<stop stop-color="#0601FF"/>
<stop offset="1" stop-color="#4BD369"/>
</linearGradient>
<clipPath id="clip0_3_2">
<rect width="1024" height="1024" fill="white"/>
</clipPath>
</defs>
</svg>
